<svg xmlns="http://www.w3.org/2000/svg" width="200" height="200"><path d="M191.7,175.9C191.7,184.4 184.8,190.9 176.3,190.9L24.1,190.9C16,190.9 9.1,184.4 9.1,175.9L9.1,24.1C9.1,16 16,9.1 24.1,9.1L176.3,9.1C184.8,9.1 191.7,16 191.7,24.1L191.7,175.9z" style="fill:none;stroke:#fff;stroke-width:18.12729836"/><path d="M191,175.9C191,184.4 184.1,191 175.6,191L24,191C16,191 9,184.4 9,175.9L9,24.1C9,16 16,9.1 24,9.1L175.6,9.1C184.1,9.1 191,16 191,24.1L191,175.9z" style="fill:#33a02c;fill-opacity:1;stroke:none;stroke-width:18.09428406"/><path d="M116,132.4C111.4,137.4 106,138.9 99.8,138.9C93.3,138.9 88.3,137 84.1,132.8C78.3,127 78.3,119.7 78.3,109.7C78.3,99.6 78.3,92.3 84.1,86.5C88.3,82.3 93.3,80 99.8,80C113.3,80 119.8,88.8 121.4,98.9L110.2,98.9C108.7,93.1 105.6,90.4 99.8,90.4C96.7,90.4 94.1,91.5 92.5,93.5C90.2,95.8 89.8,98.5 89.8,109.7C89.8,120.8 90.2,123.5 92.5,125.8C94.1,127.8 96.7,128.9 99.8,128.9C102.9,128.9 106,127.8 107.9,125.8C109.4,123.5 110.2,121.2 110.2,118.1L110.2,115.8L99.8,115.8L99.8,106.6L121.4,106.6L121.4,115C121.4,123.1 120.2,128.1 116,132.4z" fill="#fff"/><path d="M99.8,48.8C102.9,53.8 153.3,138.9 156.4,144.3C150.2,144.3 49.8,144.3 43.7,144.3C46.7,138.9 97.1,53.8 99.8,48.8z M98.3,44.1L37.1,148.2L162.9,148.2L99.8,41.4L98.3,44.1z" fill="#fff"/></svg>