<?xml version="1.0" encoding="UTF-8" standalone="no"?>
<!-- Created with Inkscape (http://www.inkscape.org/) -->

<svg
   xmlns:svg="http://www.w3.org/2000/svg"
   xmlns="http://www.w3.org/2000/svg"
   xmlns:xlink="http://www.w3.org/1999/xlink"
   version="1.0"
   width="128"
   height="128"
   id="svg2">
  <defs
     id="defs4">
    <linearGradient
       id="linearGradient3836">
      <stop
         id="stop3838"
         style="stop-color:#c0c0ca;stop-opacity:1"
         offset="0" />
      <stop
         id="stop3840"
         style="stop-color:#5c5c6e;stop-opacity:1"
         offset="1" />
    </linearGradient>
    <linearGradient
       id="linearGradient3643">
      <stop
         id="stop3645"
         style="stop-color:#ffffff;stop-opacity:1"
         offset="0" />
      <stop
         id="stop3647"
         style="stop-color:#ffffff;stop-opacity:0.2"
         offset="1" />
    </linearGradient>
    <linearGradient
       id="linearGradient3724">
      <stop
         id="stop3726"
         style="stop-color:#ffffff;stop-opacity:1"
         offset="0" />
      <stop
         id="stop3728"
         style="stop-color:#649efa;stop-opacity:1"
         offset="1" />
    </linearGradient>
    <linearGradient
       id="linearGradient3698">
      <stop
         id="stop3700"
         style="stop-color:#000078;stop-opacity:1"
         offset="0" />
      <stop
         id="stop3706"
         style="stop-color:#3ea0ff;stop-opacity:1"
         offset="0.32614323" />
      <stop
         id="stop3716"
         style="stop-color:#40a1ff;stop-opacity:1"
         offset="0.67176127" />
      <stop
         id="stop3702"
         style="stop-color:#0064ed;stop-opacity:1"
         offset="1" />
    </linearGradient>
    <linearGradient
       id="linearGradient3690">
      <stop
         id="stop3692"
         style="stop-color:#a8d5ff;stop-opacity:1"
         offset="0" />
      <stop
         id="stop3694"
         style="stop-color:#56abfe;stop-opacity:1"
         offset="0.5" />
      <stop
         id="stop3696"
         style="stop-color:#152aa9;stop-opacity:1"
         offset="1" />
    </linearGradient>
    <linearGradient
       id="linearGradient2256">
      <stop
         id="stop2258"
         style="stop-color:#000000;stop-opacity:1"
         offset="0" />
      <stop
         id="stop2260"
         style="stop-color:#000000;stop-opacity:0"
         offset="1" />
    </linearGradient>
    <linearGradient
       id="linearGradient12268">
      <stop
         id="stop12270"
         style="stop-color:#ffffff;stop-opacity:1"
         offset="0" />
      <stop
         id="stop12272"
         style="stop-color:#ffffff;stop-opacity:0"
         offset="1" />
    </linearGradient>
    <linearGradient
       id="linearGradient9227">
      <stop
         id="stop9229"
         style="stop-color:#ffffff;stop-opacity:1"
         offset="0" />
      <stop
         id="stop9231"
         style="stop-color:#ffffff;stop-opacity:0"
         offset="1" />
    </linearGradient>
    <linearGradient
       id="linearGradient8235">
      <stop
         id="stop8237"
         style="stop-color:#ffffff;stop-opacity:1"
         offset="0" />
      <stop
         id="stop8239"
         style="stop-color:#ffffff;stop-opacity:0"
         offset="1" />
    </linearGradient>
    <linearGradient
       id="linearGradient7227">
      <stop
         id="stop7229"
         style="stop-color:#ffffff;stop-opacity:0.89999998"
         offset="0" />
      <stop
         id="stop7231"
         style="stop-color:#cccccc;stop-opacity:0"
         offset="1" />
    </linearGradient>
    <filter
       color-interpolation-filters="sRGB"
       id="filter3746">
      <feGaussianBlur
         stdDeviation="1.4857634"
         id="feGaussianBlur3748" />
    </filter>
    <linearGradient
       x1="496.46127"
       y1="599.69653"
       x2="475.03595"
       y2="599.73676"
       id="linearGradient2938"
       xlink:href="#linearGradient7227"
       gradientUnits="userSpaceOnUse"
       gradientTransform="matrix(1.076171,0,0,1,-38.023641,-0.2076699)" />
    <linearGradient
       x1="487.4014"
       y1="600.26465"
       x2="455.83557"
       y2="603.5874"
       id="linearGradient2940"
       xlink:href="#linearGradient8235"
       gradientUnits="userSpaceOnUse" />
    <radialGradient
       cx="74.871651"
       cy="59.408501"
       r="10.019152"
       fx="74.871651"
       fy="59.408501"
       id="radialGradient2942"
       xlink:href="#linearGradient3836"
       gradientUnits="userSpaceOnUse"
       gradientTransform="matrix(1.0814113,0.05597562,-0.05275683,1.383964,402.8492,518.28692)" />
    <linearGradient
       x1="474.814"
       y1="644.18182"
       x2="474.814"
       y2="577.82794"
       id="linearGradient2944"
       xlink:href="#linearGradient3698"
       gradientUnits="userSpaceOnUse" />
    <linearGradient
       x1="470.5274"
       y1="557.90283"
       x2="413.4314"
       y2="557.90283"
       id="linearGradient2946"
       xlink:href="#linearGradient3643"
       gradientUnits="userSpaceOnUse" />
    <linearGradient
       x1="438.9855"
       y1="590.43488"
       x2="438.9855"
       y2="628.78479"
       id="linearGradient2948"
       xlink:href="#linearGradient3690"
       gradientUnits="userSpaceOnUse" />
    <linearGradient
       x1="451.52127"
       y1="583.88409"
       x2="463.56952"
       y2="650.99591"
       id="linearGradient2952"
       xlink:href="#linearGradient3724"
       gradientUnits="userSpaceOnUse"
       gradientTransform="matrix(0.99928335,0.03785226,-0.03785226,0.99928335,21.177498,-17.71529)" />
    <linearGradient
       x1="481.72672"
       y1="652.91541"
       x2="489.48651"
       y2="592.53448"
       id="linearGradient2954"
       xlink:href="#linearGradient2256"
       gradientUnits="userSpaceOnUse" />
    <linearGradient
       x1="474.52588"
       y1="596.73425"
       x2="473.69519"
       y2="601.92603"
       id="linearGradient2956"
       xlink:href="#linearGradient9227"
       gradientUnits="userSpaceOnUse"
       gradientTransform="matrix(0.99774802,-0.23885728,0.2465656,1.3985211,-147.2425,-126.35141)" />
    <linearGradient
       x1="7.1395473"
       y1="71.8125"
       x2="4.6122999"
       y2="57.501865"
       id="linearGradient3759"
       xlink:href="#linearGradient12268"
       gradientUnits="userSpaceOnUse" />
  </defs>
  <g
     transform="matrix(1.0352285,0,0,1.0352285,-408.94744,-557.35887)"
     id="g3686">
    <path
       d="m 481.58309,546.53623 c -7.61164,5.87427 -8.30938,6.8692 -15.07603,14.0408 -8.34914,9.75808 -19.04983,23.71797 -26.52701,31.49737 l -25.47901,5.17693 c -3.0183,9.9577 -2.81181,22.95164 5.27565,34.18535 l 24.41103,-0.59921 c 13.47611,8.99523 20.68009,15.43995 36.17154,23.90125 4.87032,2.66013 11.79299,-9.11784 14.42462,-16.09663 3.56193,-9.97862 5.89836,-25.42404 6.17445,-37.16203 0.27609,-11.73799 -0.99896,-29.30831 -3.54766,-38.80061 -3.00224,-9.6974 -9.2859,-21.19175 -15.82758,-16.14322 z"
       id="path3732"
       style="opacity:0.5;fill:#000000;fill-opacity:1;fill-rule:evenodd;stroke:none;filter:url(#filter3746)" />
    <path
       d="m 495.77806,599.14991 c 0.50819,29.3615 -7.8241,52.27419 -15.27028,53.06134 -10.49053,1.10897 -19.08089,-31.96548 -18.77819,-53.53356 0.50819,-36.20863 13.00832,-50.73876 20.22367,-51.61811 8.67317,-1.05702 14.33298,20.13165 13.8248,52.09033 z"
       id="path7225"
       style="fill:#4d4d4d;fill-opacity:1;stroke:none;display:inline" />
    <path
       d="m 496.22504,598.94224 c 0.50819,29.3615 -7.91219,54.77859 -15.84412,52.80533 -13.41457,-3.33721 -19.17752,-31.70947 -18.87482,-53.27755 0.50819,-36.20863 13.00832,-50.34937 20.22367,-51.22872 8.67317,-1.05702 15.00345,19.74226 14.49527,51.70094 z"
       id="path6198"
       style="fill:url(#linearGradient2938);fill-opacity:1;stroke:none;display:inline" />
    <path
       d="m 490.12025,601.19546 c -0.64031,29.3615 -6.59508,40.98177 -12.61385,40.65581 -5.72623,-0.31011 -12.60895,-20.42093 -12.60895,-41.99085 0,-21.56991 9.37853,-39.69309 12.76345,-39.53456 5.04139,0.23611 12.14905,6.08886 12.45935,40.8696 z"
       id="path6146"
       style="opacity:0.67699118;fill:url(#linearGradient2940);fill-opacity:1;stroke:none" />
    <path
       d="m 480.99774,604.93686 c 0,10.39483 -3.72448,13.87663 -8.93143,15.48784 -2.91385,0.90165 -4.9357,-2.51011 -6.42858,-3.25179 -4.87015,-2.41957 -2.67264,-7.32248 -2.77301,-15.05202 -0.0442,-3.47088 -0.8543,-5.56837 1.60726,-8.41954 1.28618,-1.48977 2.70492,-4.85838 5.73542,-4.90217 7.01255,-0.10122 10.79034,5.95946 10.79034,16.13768 z"
       id="path3842"
       style="fill:#000000;fill-opacity:1;stroke:#000000;stroke-width:1.35235834;stroke-miterlimit:4;stroke-opacity:1;stroke-dasharray:none;stroke-dashoffset:0" />
    <path
       d="m 479.94312,604.93686 c 0,10.39483 -3.72448,13.87663 -8.93143,15.48784 -2.91385,0.90165 -4.93569,-2.51011 -6.42857,-3.25179 -4.87017,-2.41957 -2.67265,-7.32248 -2.77303,-15.05202 -0.0442,-3.47088 -0.85428,-5.56837 1.60727,-8.41954 1.28618,-1.48977 2.70492,-4.85838 5.73542,-4.90217 7.01254,-0.10122 10.79034,5.95946 10.79034,16.13768 z"
       id="path8243"
       style="fill:#5a596b;fill-opacity:1;stroke:#000000;stroke-width:1.35235834;stroke-miterlimit:4;stroke-opacity:1;stroke-dasharray:none;stroke-dashoffset:0" />
    <path
       d="m 469.28089,589.5 c -0.89669,0.11771 -1.66516,0.44592 -2.32378,0.88163 -0.0949,0.0765 -0.20656,0.13673 -0.29723,0.22041 -1.11453,1.02845 -1.91078,2.54769 -2.81017,3.58946 -1.15459,1.33736 -1.47753,2.3748 -1.5672,3.55798 -0.0896,1.18318 0.11227,2.57937 0.1351,4.37663 0.0512,3.94488 -0.47333,7.11803 -0.40531,9.47745 0.034,1.17972 0.21453,2.11686 0.62148,2.89677 0.40697,0.77991 1.05409,1.45145 2.18868,2.01513 0.96376,0.47881 1.79118,1.54779 2.78314,2.33001 0.61999,0.48888 1.25886,0.88185 1.9455,1.00757 0.41198,0.0754 0.83188,0.0494 1.29699,-0.0945 2.53355,-0.78397 4.62965,-2.00528 6.1067,-4.21919 1.47705,-2.21392 2.37783,-5.51172 2.37783,-10.61097 0,-4.98743 -0.9117,-8.888 -2.62101,-11.49259 -1.68562,-2.56848 -4.14561,-3.94441 -7.43072,-3.93582 z"
       id="path9254"
       style="fill:url(#radialGradient2942);fill-opacity:1;stroke:none;display:inline" />
    <path
       d="m 419.80074,629.72815 23.84695,-1.41666 c 6.86045,4.02494 18.04639,13.05858 28.29636,19.90812 -12.72577,-42.30278 -7.28532,-56.36867 0.0366,-93.33783 l -31.87463,36.12459 -26.44414,6.61103 c -2.38215,9.07206 -3.2815,18.69041 6.13882,32.11075 z"
       id="path6124"
       style="fill:url(#linearGradient2944);fill-opacity:1;fill-rule:evenodd;stroke:none" />
    <path
       d="m 413.4314,604.72775 30.50073,-6.28133 21.33351,-23.60724 c 0.95421,-5.55783 3.23345,-12.95067 5.26177,-16.93637 -4.67346,4.95647 -19.85442,23.30372 -29.78171,34.95577 l -26.65179,5.11345 c -0.30383,3.43869 -0.56023,5.93029 -0.66251,6.75572 z"
       id="path11276"
       style="opacity:0.5;fill:url(#linearGradient2946);fill-opacity:1;fill-rule:evenodd;stroke:none" />
    <path
       d="m 442.96004,627.88477 c -4.42995,-16.05946 -3.20691,-26.46595 -1.66136,-36.54991"
       id="path10265"
       style="opacity:0.88999999;fill:none;stroke:url(#linearGradient2948);stroke-width:1.73874652;stroke-linecap:butt;stroke-linejoin:miter;stroke-miterlimit:4;stroke-opacity:1;stroke-dasharray:none;display:inline" />
    <path
       d="M 9.625,59.0625 4.7892873,60.043628 C 3.9046408,69.16172 6.3823644,77.141828 11.190586,84.5625 L 14.46875,84.34375 C 8.0460987,74.353056 8.6911196,66.304524 9.625,59.0625 z"
       transform="matrix(0.96597031,0,0,0.96597031,410.15195,546.44209)"
       id="path11278"
       style="opacity:0.9;color:#000000;fill:url(#linearGradient3759);fill-opacity:1;fill-rule:evenodd;stroke:none;stroke-width:1px;marker:none;visibility:visible;display:inline;overflow:visible;enable-background:accumulate" />
    <path
       d="m 478.60662,550.5437 -6.34974,3.14698 c -14.05559,17.40847 -14.13064,69.49848 -1.67555,94.06112 l 4.37212,2.68006 c -0.42594,-1.00168 0.21448,-0.42223 -0.41372,-2.00863 -9.98352,-25.21138 -12.11643,-76.32649 4.06689,-97.87953 z"
       id="path3200"
       style="opacity:0.96160003;fill:url(#linearGradient2952);fill-opacity:1;fill-rule:evenodd;stroke:none" />
    <path
       d="m 480.79054,545.51126 c -7.61164,5.87427 -8.30938,6.8692 -15.07603,14.0408 -8.34914,9.75808 -19.04983,23.71797 -26.52701,31.49737 l -25.47901,5.17693 c -3.0183,9.9577 -2.81181,22.95164 5.27565,34.18535 l 24.41103,-0.59921 c 13.47611,8.99523 20.68009,15.43995 36.17154,23.90125 4.87032,2.66013 11.79299,-9.11784 14.42462,-16.09663 3.56193,-9.97862 5.89836,-25.42404 6.17445,-37.16203 0.27609,-11.73799 -0.99896,-29.30831 -3.54766,-38.80061 -3.00224,-9.6974 -9.2859,-21.19175 -15.82758,-16.14322 z m 11.91781,18.95402 c 2.17212,9.44063 2.94054,25.18051 2.6661,36.84858 -0.27444,11.66807 -0.99832,19.71306 -3.61403,29.87364 -2.61693,10.16534 -7.07486,23.14882 -12.21386,20.16949 -19.01894,-11.0262 -23.60831,-15.92585 -35.92156,-24.33961 l -24.10415,1.11111 c -7.68995,-10.80372 -6.49067,-20.08994 -5.37849,-30.07642 l 26.64582,-5.13195 c 4.95841,-5.01409 16.04476,-19.19756 24.39628,-28.95843 6.13992,-6.52865 9.67059,-12.3153 16.52805,-15.10825 6.11904,-2.4922 9.57787,9.9383 10.99584,15.61184 z"
       id="path2221"
       style="fill:#000080;fill-opacity:1;fill-rule:evenodd;stroke:none" />
    <path
       d="m 480.79054,545.51126 c -8.89336,6.34424 -9.50565,7.72368 -16.95588,16.43334 -8.34914,9.75808 -17.16998,21.32543 -24.64716,29.10483 l -25.47901,5.17693 c -3.0183,9.9577 -2.81181,22.95164 5.27565,34.18535 l 24.41103,-0.59921 c 13.47611,8.99523 20.68009,15.43995 36.17154,23.90125 4.87032,2.66013 11.79299,-9.11784 14.42462,-16.09663 3.56193,-9.97862 5.89836,-25.42404 6.17445,-37.16203 0.27609,-11.73799 -1.81726,-28.78269 -4.01474,-38.33353 -1.50022,-5.56486 -8.6335,-21.40913 -15.3605,-16.6103 z m 11.91781,18.95402 c 2.17212,9.44063 2.94054,25.18051 2.6661,36.84858 -0.27444,11.66807 -0.99832,19.71306 -3.61403,29.87364 -2.61693,10.16534 -7.07486,23.14882 -12.21386,20.16949 -19.01894,-11.0262 -23.60831,-15.92585 -35.92156,-24.33961 l -24.10415,1.11111 c -7.68995,-10.80372 -6.49067,-20.08994 -5.37849,-30.07642 l 26.64582,-5.13195 c 4.95841,-5.01409 16.04476,-19.19756 24.39628,-28.95843 6.13992,-6.52865 9.67059,-12.3153 16.52805,-15.10825 6.11904,-2.4922 9.57787,9.9383 10.99584,15.61184 z"
       id="path2254"
       style="fill:url(#linearGradient2954);fill-opacity:1;fill-rule:evenodd;stroke:none;display:inline" />
    <path
       d="m 476.71057,596.76961 a 6.2001211,3.8236997 82.136932 0 1 -7.45928,1.78573 6.2001211,3.8236997 82.136932 1 1 7.45928,-1.78573 z"
       id="path9225"
       style="opacity:0.8;fill:url(#linearGradient2956);fill-opacity:1;stroke:none" />
  </g>
</svg>
