<?xml version="1.0" encoding="utf-8"?>
<!-- Generator: Adobe Illustrator 24.3.0, SVG Export Plug-In . SVG Version: 6.00 Build 0)  -->
<svg version="1.1" id="Layer_1" xmlns="http://www.w3.org/2000/svg" xmlns:xlink="http://www.w3.org/1999/xlink" x="0px" y="0px"
	 viewBox="0 0 67.6 85.6" style="enable-background:new 0 0 67.6 85.6;" xml:space="preserve">
<style type="text/css">
	.st0{clip-path:url(#SVGID_2_);}
	.st1{fill:#FFFFFF;}
	.st2{clip-path:url(#SVGID_4_);}
	.st3{clip-path:url(#SVGID_6_);}
	.st4{clip-path:url(#SVGID_8_);}
	.st5{clip-path:url(#SVGID_10_);}
	.st6{clip-path:url(#SVGID_12_);}
	.st7{fill:#231815;}
	.st8{clip-path:url(#SVGID_14_);}
	.st9{clip-path:url(#SVGID_16_);}
	.st10{clip-path:url(#SVGID_18_);}
</style>
<g id="Layer_2_1_">
	<g id="Layer_1-2">
		<g>
			<g>
				<g>
					<defs>
						<rect id="SVGID_1_" y="0" width="67.6" height="85.6"/>
					</defs>
					<clipPath id="SVGID_2_">
						<use xlink:href="#SVGID_1_"  style="overflow:visible;"/>
					</clipPath>
					<g class="st0">
						<path class="st1" d="M5.5,0.6h56.8c2.5,0,4.6,2.1,4.6,4.7l0,0v74.8c0,2.6-2,4.7-4.6,4.7l0,0H5.5c-2.5,0-4.6-2.1-4.6-4.7l0,0
							V5.4C0.9,2.7,2.9,0.6,5.5,0.6L5.5,0.6z"/>
					</g>
				</g>
			</g>
		</g>
		<g>
			<g>
				<g>
					<defs>
						<rect id="SVGID_3_" y="0" width="67.6" height="85.6"/>
					</defs>
					<clipPath id="SVGID_4_">
						<use xlink:href="#SVGID_3_"  style="overflow:visible;"/>
					</clipPath>
					<g class="st2">
						<path d="M66.8,6.8c0-3.3-2.7-6-6-6h-54c-3.3,0-6,2.7-6,6v63.9h66V6.8z"/>
					</g>
				</g>
			</g>
		</g>
		<g>
			<g>
				<g>
					<defs>
						<rect id="SVGID_5_" y="0" width="67.6" height="85.6"/>
					</defs>
					<clipPath id="SVGID_6_">
						<use xlink:href="#SVGID_5_"  style="overflow:visible;"/>
					</clipPath>
					<g class="st3">
						<path d="M60.8,85.6h-54c-3.8,0-6.8-3-6.8-6.8v-72C0,3,3,0,6.8,0h54c3.8,0,6.8,3,6.8,6.8v72C67.6,82.5,64.5,85.6,60.8,85.6z
							 M6.8,1.6C4,1.6,1.6,3.9,1.6,6.7v0.1v72c0,2.8,2.3,5.2,5.1,5.2h0.1h54c2.8,0,5.2-2.3,5.2-5.1v-0.1v-72c0-2.8-2.3-5.2-5.1-5.2
							h-0.1L6.8,1.6z"/>
					</g>
				</g>
			</g>
		</g>
		<g>
			<g>
				<g>
					<defs>
						<rect id="SVGID_7_" y="0" width="67.6" height="85.6"/>
					</defs>
					<clipPath id="SVGID_8_">
						<use xlink:href="#SVGID_7_"  style="overflow:visible;"/>
					</clipPath>
					<g class="st4">
						<path class="st1" d="M17.3,6.7c-1.2-0.8-2.6-1.3-4.1-1.3c-3.4,0-4.3,2.7-4.3,5.6c0,3.4,1.6,6.1,5.3,6.1
							c1.9-0.1,3.7-0.6,5.3-1.6l-1.2,3.6c-1.6,0.4-3.2,0.6-4.9,0.6c-2.4,0.2-4.7-0.6-6.6-2.1c-1.9-1.6-2.9-3.9-2.9-6.4
							c0-2.3,1-4.5,2.7-6.1c1.9-1.5,4.3-2.3,6.8-2.2l3.7,0.3L17.3,6.7z M25.4,16.7c0.8,0.3,1.7,0.4,2.6,0.4c1.3,0.2,2.7-0.3,3.6-1.3
							h0.1l-1,3.7H19.9v-0.1c1.2-0.8,1-2.1,1-3.4V6.8c0-1.3,0.2-2.7-1-3.4h8.6c0.3,0,0.7,0,1-0.1h0.1v3.5l0,0c-0.7-1.1-2-1-3.2-1
							h-0.8v4h2.3c0.3,0,0.6,0,0.9-0.1l0,0v3.4h-0.1c-0.3-1-1.5-0.9-2.4-0.9h-0.8L25.4,16.7z M37.7,12.6l2.8,5.3
							c0.8,1.5,1.6,1.7,3.3,1.6l3.4-0.2c-0.9-0.8-1.7-1.8-2.3-2.9L42,11.5c1.7-0.6,2.8-2.1,2.9-3.9c0.1-1.6-0.8-3-2.2-3.7
							c-1-0.5-2.2-0.7-3.3-0.6h-7.2v0.1c1.2,0.8,1,2.1,1,3.4v9.1c0,1.3,0.2,2.7-1,3.4v0.1h6.6v-0.1c-1.2-0.8-1-2.1-1-3.4L37.7,12.6z
							 M37.9,5.7c0.5,0,1,0.1,1.4,0.3c0.6,0.5,1,1.3,1,2.1c0,1.5-1.1,2.8-2.6,3.1V5.7H37.9"/>
					</g>
				</g>
			</g>
		</g>
		<g>
			<g>
				<g>
					<defs>
						<rect id="SVGID_9_" y="0" width="67.6" height="85.6"/>
					</defs>
					<clipPath id="SVGID_10_">
						<use xlink:href="#SVGID_9_"  style="overflow:visible;"/>
					</clipPath>
					<g class="st5">
						<path class="st1" d="M45.8,11.3c0,5.2,3.9,8.4,8.9,8.4s9.2-3.1,9.2-8.4S60.1,2.9,55,2.9C50.1,3,45.8,6.1,45.8,11.3z
							 M50.6,10.7c0-2.5,1.3-5.3,4.2-5.3c3.3,0,4.4,4,4.4,6.8c0.1,1.2-0.2,2.4-0.9,3.4c-0.7,1.1-1.9,1.7-3.2,1.7
							c-1.4-0.1-2.6-0.9-3.3-2.1C51,13.8,50.6,12.3,50.6,10.7 M59.9,67.6H39.5l-1.6-4.8h-7.7l-1.5,4.8H8.2l17.1-44.9h17.5L59.9,67.6
							z M45.7,59h1.7L36.8,31.3l7.9,24.5L45.7,59z M20.7,59h1.6l8.9-27.7L20.7,59z"/>
					</g>
				</g>
			</g>
		</g>
		<g>
			<g>
				<g>
					<defs>
						<rect id="SVGID_11_" y="0" width="67.6" height="85.6"/>
					</defs>
					<clipPath id="SVGID_12_">
						<use xlink:href="#SVGID_11_"  style="overflow:visible;"/>
					</clipPath>
					<g class="st6">
						<path class="st7" d="M56.7,65.5H41l-1.6-4.8H28.6l-1.5,4.8H11.4l15.4-40.6h14.5L56.7,65.5z M44.1,61.2h6.3l-12.2-32h-8.4
							l-12.1,32H24l1.5-4.8h17.1L44.1,61.2z M41.8,53.7H26.3l7.7-24L41.8,53.7z M32.3,49.4h3.5L34,43.8L32.3,49.4z"/>
					</g>
				</g>
			</g>
		</g>
		<g>
			<g>
				<g>
					<defs>
						<rect id="SVGID_13_" y="0" width="67.6" height="85.6"/>
					</defs>
					<clipPath id="SVGID_14_">
						<use xlink:href="#SVGID_13_"  style="overflow:visible;"/>
					</clipPath>
					<g class="st8">
						<path class="st7" d="M29.3,51.5L34,36.7l4.8,14.8H29.3z M41,58.5l1.6,4.8h11L39.8,27H28.3L14.5,63.3h11l1.5-4.8H41z"/>
					</g>
				</g>
			</g>
		</g>
		<g>
			<g>
				<g>
					<defs>
						<rect id="SVGID_15_" y="0" width="67.6" height="85.6"/>
					</defs>
					<clipPath id="SVGID_16_">
						<use xlink:href="#SVGID_15_"  style="overflow:visible;"/>
					</clipPath>
					<g class="st9">
						<path class="st1" d="M28.6,51.5l4.7-14.8l4.8,14.8H28.6z M40.3,58.5l1.6,4.8h11L39.1,27H27.6L13.8,63.3h11l1.5-4.8H40.3z"/>
					</g>
				</g>
			</g>
		</g>
		<g>
			<g>
				<g>
					<defs>
						<rect id="SVGID_17_" y="0" width="67.6" height="85.6"/>
					</defs>
					<clipPath id="SVGID_18_">
						<use xlink:href="#SVGID_17_"  style="overflow:visible;"/>
					</clipPath>
					<g class="st10">
						<path class="st7" d="M8,76c1.2-0.7,2.2-1.6,3-2.7c0.9,1,2,1.9,3.1,2.7H8z M7.6,77.1h2.9v1.5H7v1h3.5v1.8H5.9v1.2h10.3v-1.2
							h-4.5v-1.8h3.6v-1h-3.6v-1.5h2.9v-0.9c0.4,0.3,0.9,0.5,1.4,0.7l0.6-1.2c-1.9-0.6-3.6-1.8-4.9-3.4h-1.3
							c-1.3,1.6-2.9,2.8-4.8,3.5L6.2,77c0.5-0.2,1-0.4,1.4-0.7V77.1z M22.3,77.2v2h-2.5v-2H22.3z M22.3,74.6v1.5h-3.7v3.1h-1.7v1.1
							h5.4v2.5h1.2v-2.5h4.1v-1.1h-4.1v-2h3.3v-1.1h-3.3v-1.6h3.7v-1.1h-6.9c0.1-0.3,0.2-0.5,0.3-0.8l-1.3-0.3
							c-0.4,1.5-1.3,2.7-2.6,3.6l0.8,1c0.8-0.6,1.5-1.4,2.1-2.3L22.3,74.6z M31.8,79.5c0.3,0.5,0.6,1,1,1.5l0.3-0.7v1.2h-3.6v-1.3
							l0.4,0.8c0.4-0.4,0.7-0.8,1-1.3v1.5h0.9C31.8,81.2,31.8,79.5,31.8,79.5z M29.5,77.8v-1.5h-1V83h1v-0.5h3.6V83h1v-6.7h-1v1.5
							h-1.3v-1.7h-0.9v1.7H29.5z M34.7,76.5c0.1-0.1,0.2-0.2,0.3-0.4v0.5h3v-0.5c0.1,0.2,0.3,0.3,0.5,0.4l0.6-1.2
							c-1-0.8-1.7-1.8-2.2-3h-1c-0.3,1-0.8,2-1.5,2.8v-0.3h-2.3V74h2.1v-0.9h-2.1v-0.7h-1v2.4h-1.2v-2h-1.1v2h-0.6v1h6L34.7,76.5z
							 M33.2,78.7V80c-0.4-0.4-0.8-0.8-1.1-1.3H33.2z M30.8,78.7c-0.3,0.5-0.7,1-1.2,1.4v-1.4H30.8z M35.4,75.6c0.4-0.6,0.7-1.3,1-2
							c0.3,0.7,0.7,1.4,1.2,2H35.4z M34.4,77.6v1h0.7v4.3h1.1v-4.2h1.2v2.1c0,0.2-0.1,0.2-0.3,0.2h-0.6l0.2,1.2h0.9
							c0.4,0.1,0.8-0.2,0.9-0.6c0,0,0,0,0-0.1v-3.9H34.4z M29.8,76.3c0.1,0.4,0.2,0.9,0.2,1.3l0.7-0.1c0-0.4-0.1-0.9-0.2-1.3
							L29.8,76.3z M32.3,76.1c-0.1,0.6-0.1,0.7-0.2,1.3l0.6,0.2c0.1-0.4,0.2-0.9,0.2-1.3L32.3,76.1z M40.6,76.1
							c0.6,0.5,1.2,1.1,1.8,1.6c0.3-0.8,0.5-1.6,0.6-2.5h-3.4V74h2.1v-1.7h1.2V74h2v1.2h-0.7c-0.2,1.2-0.5,2.3-0.9,3.4
							c0.6,0.7,1.2,1.4,1.6,2.2L44,81.6l-1.2-1.8c-0.6,1.1-1.5,2.1-2.5,2.9l-0.8-1c1-0.8,1.9-1.8,2.5-2.9c-0.6-0.7-1.3-1.4-2.1-2
							L40.6,76.1z M49.1,72.4v2.1H50v1.2h-0.9v6.2c0,0.9-0.5,1-1.3,1h-1.7l-0.3-1.1h1.7c0.4,0,0.4,0,0.4-0.3v-5.9h-2.7v-1.2h2.7
							v-2.1C48.3,72.4,48.7,72.4,49.1,72.4z M45.8,76.6c0.6,0.9,1.1,1.9,1.5,3l-1.2,0.6c-0.3-1.1-0.8-2.1-1.4-3L45.8,76.6z
							 M55.5,75.5v1h-2.8v-1H55.5z M51.3,81.2c1.5-0.3,2.9-0.8,4.3-1.5c0.1,0.1,0.1,0.3,0.1,0.4c-1.6,0.8-3.3,1.4-5,1.6l0.4,1
							c1.7-0.3,3.3-0.9,4.8-1.7c0,0.7,0,0.8-0.7,0.8h-1l0.3,1.1h1c0.6,0,1.5,0,1.5-1.6c0-0.9-0.3-1.8-0.8-2.6
							c-0.1-0.2-0.3-0.3-0.5-0.5c0.5-0.2,0.9-0.5,1.3-0.8c0.6,3.4,2.2,4.5,3.7,5.2l0.7-1c-0.8-0.4-1.5-0.9-2.2-1.5
							c0.6-0.4,1.2-0.8,1.8-1.3L60.1,78c-0.4,0.5-1,0.9-1.5,1.2c-0.3-0.6-0.5-1.2-0.6-1.8h2.5v-2.8h-2.6c0.3-0.2,0.5-0.4,0.7-0.7V73
							h-3.8l0.3-0.4l-1.2-0.2c-0.9,1-2.1,1.8-3.4,2.1l0.5,1c0.2,0,0.3-0.1,0.5-0.2v2.2h3.7c-1.4,0.6-2.8,1-4.3,1.2l0.4,0.9
							c1.1-0.2,2.2-0.5,3.3-0.9l0.3,0.3c-1.3,0.7-2.7,1.1-4.2,1.2L51.3,81.2z M52.8,74.6c0.4-0.2,0.8-0.4,1.1-0.7h3.2
							c-0.2,0.3-0.4,0.5-0.7,0.7H52.8z M59.5,75.5v1h-2.9v-1H59.5z"/>
					</g>
				</g>
			</g>
		</g>
	</g>
</g>
</svg>
